<svg width="958" height="595" viewBox="0 0 958 595" fill="none" xmlns="http://www.w3.org/2000/svg">
<g clip-path="url(#clip0_2_3)">
<path d="M0 0C316.14 0 632.28 0 958 0C958 196.35 958 392.7 958 595C641.86 595 325.72 595 0 595C0 398.65 0 202.3 0 0Z" fill="#FCFCFD"/>
<path d="M284 136C303.43 150.623 316.967 170.572 320.719 194.883C323.047 220.69 317.888 246.668 301 267C290.054 279.681 269.88 295.734 252.937 298.5C243.595 297.314 235.361 291.07 227.391 286.301C220.501 282.214 213.449 278.445 206.375 274.688C194.596 268.427 182.934 261.984 171.361 255.348C169.253 254.145 167.137 252.957 165.015 251.777C163.399 250.867 163.399 250.867 161.75 249.938C160.878 249.452 160.007 248.966 159.109 248.465C154.685 245.392 153.384 241.745 151.875 236.688C151.542 235.598 151.21 234.509 150.867 233.387C144.654 209.122 148.669 184.37 161 163C163.153 159.5 165.452 156.222 168 153C168.87 151.884 168.87 151.884 169.758 150.746C182.695 135.183 200.495 126.205 220 122C220.785 121.809 221.57 121.618 222.379 121.422C243.203 118.07 266.878 123.822 284 136Z" fill="#151514"/>
<path d="M140 249C140.588 249.316 141.176 249.632 141.782 249.957C144.942 251.668 148.064 253.437 151.176 255.234C157.362 258.802 163.621 262.24 169.875 265.688C170.498 266.031 171.121 266.375 171.763 266.729C180.588 271.596 189.436 276.416 198.312 281.188C199.364 281.753 200.415 282.318 201.499 282.901C205.779 285.201 210.061 287.498 214.347 289.788C217.629 291.542 220.908 293.302 224.188 295.062C225.173 295.587 226.159 296.111 227.175 296.651C240.207 303.661 240.207 303.661 243.438 307.875C244.964 313.641 244.062 318.09 241.277 323.203C238.656 326.891 235.191 328.603 231 330C224.815 330.625 219.841 329.644 214.188 327.062C213.041 326.561 213.041 326.561 211.872 326.05C200.974 321.213 190.218 316.033 179.454 310.905C178.686 310.539 177.919 310.174 177.128 309.797C175.684 309.108 174.24 308.419 172.796 307.727C163.829 303.127 163.829 303.127 154 302C154.917 305.067 155.53 306.663 158.169 308.555C159.52 309.208 159.52 309.208 160.898 309.875C161.922 310.379 162.946 310.883 164 311.403C165.114 311.93 166.228 312.457 167.375 313C168.522 313.557 169.668 314.115 170.849 314.689C174.554 316.486 178.275 318.246 182 320C182.631 320.298 183.262 320.596 183.913 320.903C191.613 324.535 199.327 328.14 207.079 331.663C208.914 332.503 210.742 333.359 212.558 334.24C220.069 337.812 227.557 338.479 235.688 336.27C241.458 333.881 246.377 330.645 249.688 325.25C251.002 322.222 251.002 322.222 251.527 319.828C253.07 313.82 255.182 311.822 260.343 308.571C265.013 305.81 269.771 303.232 274.562 300.688C276.701 299.541 278.839 298.394 280.977 297.246C282.009 296.692 283.042 296.137 284.106 295.566C287.911 293.507 291.677 291.387 295.438 289.25C296.691 288.548 297.945 287.846 299.199 287.145C301.932 285.614 304.634 284.038 307.332 282.449C315.491 277.749 322.28 274.037 332 276C337.389 277.828 340.461 280.922 343 286C343.622 291.577 343.638 296.585 340.357 301.304C335.847 306.94 329.642 310.642 323.5 314.25C315.771 318.882 308.247 323.742 300.787 328.792C297.888 330.751 294.975 332.687 292.062 334.625C290.824 335.45 289.586 336.276 288.348 337.102C284.795 339.47 284.795 339.47 281.242 341.839C279.212 343.192 277.183 344.545 275.153 345.899C273.054 347.298 270.954 348.695 268.853 350.092C264.396 353.055 259.945 356.023 255.547 359.074C243.721 367.244 233.11 372.159 218.688 372.375C217.782 372.412 216.876 372.45 215.943 372.488C198.752 372.704 183.342 362.968 168.5 355.375C164.408 353.295 160.314 351.221 156.219 349.148C155.211 348.637 154.203 348.126 153.165 347.6C121.554 328.988 121.554 328.988 86.7734 327.164C82.7667 328.588 78.8726 330.248 75 332C73.3274 332.748 73.3274 332.748 71.6211 333.512C69.7521 334.362 67.89 335.228 66.0391 336.117C64 337 64 337 62 337C62 309.94 62 282.88 62 255C74.3852 250.496 74.3852 250.496 80.0234 248.895C81.2287 248.551 82.434 248.207 83.6758 247.854C84.8965 247.51 86.1173 247.166 87.375 246.813C88.6189 246.457 89.8629 246.102 91.1445 245.736C109.254 240.6 123.299 239.883 140 249Z" fill="#131212"/>
<path d="M632 212C691.714 212 691.714 212 702 222C706.947 229.437 707.727 235.135 707 244C705.344 250.194 701.302 254.539 696 258C694.349 258.706 692.685 259.381 691 260C691.785 260.34 692.57 260.681 693.379 261.031C700.976 264.536 707.155 268.31 711 276C712.32 294.427 712.32 294.427 707.613 301.176C701.355 308.252 695.328 312.063 686 314C684.198 314.086 682.393 314.118 680.589 314.114C678.945 314.113 678.945 314.113 677.268 314.113C676.123 314.108 674.977 314.103 673.797 314.098C672.739 314.097 671.682 314.096 670.592 314.095C666.645 314.089 662.697 314.075 658.75 314.062C645.509 314.032 645.509 314.032 632 314C632 280.34 632 246.68 632 212Z" fill="#083CD9"/>
<path d="M442 212C449.26 212 456.52 212 464 212C468.141 216.418 469.61 218.755 472 224C473.568 226.531 475.278 228.955 476.988 231.391C477.866 232.681 478.741 233.974 479.613 235.268C480.513 236.595 481.413 237.923 482.312 239.25C482.774 239.931 483.235 240.611 483.71 241.312C488.956 249.053 494.204 256.793 499.5 264.5C499.901 265.084 500.303 265.669 500.716 266.271C503.434 270.213 506.215 274.102 509 278C509.33 256.22 509.66 234.44 510 212C516.93 212 523.86 212 531 212C531 245.66 531 279.32 531 314C524.07 314 517.14 314 510 314C504.333 307.089 504.333 307.089 502.707 303.359C499.713 297.103 495.774 291.522 491.835 285.839C490.148 283.401 488.48 280.951 486.812 278.501C484.879 275.664 482.939 272.832 481 270C480.388 269.105 479.776 268.209 479.145 267.287C474.49 260.479 469.794 253.712 465 247C464.67 269.11 464.34 291.22 464 314C456.74 314 449.48 314 442 314C442 280.34 442 246.68 442 212Z" fill="#073BD9"/>
<path d="M441 339C449.25 339 457.5 339 466 339C470.494 347.988 470.494 347.988 471.684 351.215C471.965 351.968 472.247 352.721 472.537 353.497C472.983 354.705 472.983 354.705 473.438 355.938C476.029 362.865 478.683 369.765 481.41 376.641C481.706 377.386 482.001 378.131 482.305 378.899C483.501 381.915 484.698 384.93 485.9 387.943C486.749 390.069 487.594 392.196 488.438 394.324C488.696 394.969 488.955 395.614 489.222 396.279C491 400.773 491 400.773 491 403C491.66 403 492.32 403 493 403C493.126 402.279 493.252 401.558 493.381 400.814C493.992 398.038 494.839 395.604 495.902 392.969C496.293 391.995 496.683 391.02 497.086 390.015C497.72 388.451 497.72 388.451 498.367 386.855C498.803 385.772 499.238 384.688 499.687 383.571C501.079 380.108 502.477 376.648 503.875 373.188C505.265 369.737 506.654 366.287 508.042 362.836C508.905 360.69 509.77 358.546 510.636 356.401C511.033 355.417 511.43 354.433 511.839 353.419C512.358 352.136 512.358 352.136 512.887 350.827C514.301 347.235 515.644 343.615 517 340C524.92 340 532.84 340 541 340C541 369.37 541 398.74 541 429C535.72 429 530.44 429 525 429C525 408.21 525 387.42 525 366C521.865 369.135 521.008 371.011 519.469 375.09C519.236 375.698 519.004 376.307 518.764 376.934C518.263 378.248 517.766 379.563 517.272 380.88C516.494 382.953 515.707 385.023 514.917 387.092C513.824 389.955 512.734 392.819 511.646 395.684C509.314 401.811 506.933 407.919 504.539 414.022C503.82 415.856 503.105 417.692 502.391 419.527C501.959 420.629 501.527 421.732 501.082 422.867C500.703 423.838 500.324 424.808 499.933 425.808C499 428 499 428 498 429C495.647 429.073 493.292 429.084 490.938 429.062C489.002 429.049 489.002 429.049 487.027 429.035C486.028 429.024 485.029 429.012 484 429C483.683 428.002 483.366 427.005 483.039 425.977C478.901 413.169 474.105 400.644 469.208 388.11C468.079 385.203 466.97 382.289 465.871 379.371C465.552 378.53 465.233 377.689 464.904 376.822C464.316 375.272 463.734 373.72 463.156 372.166C461.937 368.381 461.937 368.381 459 366C459 386.79 459 407.58 459 429C453.06 429 447.12 429 441 429C441 399.3 441 369.6 441 339Z" fill="#131313"/>
<path d="M602.25 241.125C610.612 246.984 616.699 255.004 619 265C620.56 278.155 619.801 290.351 612.273 301.574C606.89 308.276 599.462 313.181 591 315C577.9 315.917 567.011 315.298 556.5 306.5C547.176 297.582 543.133 287.913 542.824 274.949C542.955 263.652 546.548 254.557 554 246C567.668 234.498 586.489 232.229 602.25 241.125Z" fill="#083CD9"/>
<path d="M674 339C679.94 339 685.88 339 692 339C692 368.7 692 398.4 692 429C686.39 429 680.78 429 675 429C674.67 425.7 674.34 422.4 674 419C672.969 420.258 671.938 421.516 670.875 422.812C667.105 427.412 663.422 429.653 657.484 430.504C647.33 430.663 641.281 429.08 633.941 422.02C626.351 413.356 625.423 402.888 625.73 391.742C626.467 381.522 628.159 374.394 635.625 367.035C642.35 361.273 647.742 360.331 656.652 360.617C664.92 361.563 667.627 364.552 673 371C673.33 360.44 673.66 349.88 674 339Z" fill="#131313"/>
<path d="M813 242C817.589 245.824 820.85 250.076 822 256C822.086 257.925 822.118 259.852 822.114 261.778C822.114 263.52 822.114 263.52 822.113 265.296C822.108 266.544 822.103 267.792 822.098 269.078C822.096 270.36 822.095 271.642 822.093 272.962C822.09 276.362 822.08 279.762 822.069 283.161C822.059 286.634 822.054 290.106 822.049 293.578C822.038 300.385 822.021 307.193 822 314C816.06 314 810.12 314 804 314C803.505 310.04 803.505 310.04 803 306C802.29 306.706 802.29 306.706 801.567 307.426C794.334 314.235 787.656 316.648 777.707 316.355C773.332 315.781 769.811 314.159 766 312C764.907 311.381 763.814 310.762 762.688 310.125C758.789 307.043 756.566 303.698 755 299C754.473 292.068 754.279 286.002 758 280C764.737 272.272 774.147 269.578 784.088 268.846C787.04 268.673 789.993 268.532 792.947 268.395C796.426 268.215 799.643 267.921 803 267C802.882 262.073 802.75 258.923 799.563 255C794.89 251.353 790.799 251.35 785 252C781.69 253.685 779.619 254.789 777.914 258.125C775.612 260.38 774.903 260.296 771.77 260.391C770.117 260.364 768.464 260.316 766.813 260.25C765.968 260.232 765.123 260.214 764.252 260.195C762.168 260.148 760.084 260.076 758 260C758.5 252.651 760.296 249.553 765.453 244.207C777.223 234.007 800.368 233.284 813 242Z" fill="#093DD9"/>
<path d="M780.766 363.805C786.76 367.011 790.063 370.908 793 377C793.829 380.344 794.123 383.443 794.113 386.882C794.113 387.823 794.113 388.763 794.113 389.732C794.108 390.735 794.103 391.737 794.098 392.77C794.096 393.806 794.095 394.842 794.093 395.909C794.088 399.21 794.075 402.511 794.062 405.812C794.057 408.054 794.053 410.296 794.049 412.537C794.038 418.025 794.02 423.512 794 429C788.39 429 782.78 429 777 429C776.505 424.545 776.505 424.545 776 420C775.34 420.907 774.68 421.815 774 422.75C769.81 427.634 765.854 429.666 759.43 430.418C752.687 430.666 747.073 430.719 741.582 426.496C736.937 422.104 734.313 418.687 733.762 412.195C733.61 405.936 733.541 401.811 738 397C742.841 392.265 747.393 389.909 754.16 389.437C755.118 389.363 756.077 389.288 757.064 389.211C759.067 389.07 761.07 388.929 763.072 388.789C764.029 388.714 764.986 388.64 765.973 388.562C766.841 388.502 767.71 388.441 768.606 388.379C771.089 387.986 772.829 387.242 775 386C775.225 382.695 775.345 380.608 773.687 377.687C770.841 374.841 767.957 374.842 764.125 374.812C758.796 374.87 758.796 374.87 754 377C753.01 379.475 753.01 379.475 752 382C746.72 382 741.44 382 736 382C737.018 375.891 737.967 371.024 743 367C754.211 359.058 768.235 358.375 780.766 363.805Z" fill="#131313"/>
<path d="M889.078 242.32C893.407 245.649 896.375 249.761 898 255C898 256.65 898 258.3 898 260C892.06 260 886.12 260 880 260C879.34 258.02 878.68 256.04 878 254C874.417 251.832 871.063 251.729 866.938 251.75C865.404 251.742 865.404 251.742 863.84 251.734C861.009 251.999 859.362 252.451 857 254C855.58 256.841 855.685 258.855 856 262C858.807 265.507 861.164 266.658 865.5 267.625C866.56 267.867 867.619 268.11 868.711 268.359C871.843 268.969 874.966 269.434 878.125 269.875C885.229 271.003 891.421 273.356 896.5 278.562C900.478 285.026 900.88 290.414 900 298C897.603 304.46 892.783 308.843 886.91 312.191C880.532 315.083 874.33 315.386 867.438 315.437C866.126 315.453 866.126 315.453 864.789 315.468C854.969 315.338 846.134 313.035 839 306C835.439 301.51 834.833 297.833 834 292C840.6 292 847.2 292 854 292C854.99 293.98 855.98 295.96 857 298C860.592 300.395 863.282 300.367 867.438 300.375C869.416 300.418 869.416 300.418 871.434 300.461C875.019 300.291 875.019 300.291 877.438 298.199C879.726 294.978 879.629 292.843 879 289C875.373 286.233 871.87 285.347 867.438 284.5C865.589 284.123 865.589 284.123 863.703 283.738C861.381 283.275 859.058 282.814 856.734 282.355C849.191 280.702 842.611 278.374 837.559 272.254C834.206 266.634 834.033 260.351 835 254C837.604 246.824 843.425 242.249 850.105 238.965C862.281 234.459 878.131 235.365 889.078 242.32Z" fill="#0B3FD9"/>
<path d="M646.492 119.535C652.898 123.277 658.442 128.967 661 136C662 141 662 141 662 156C647.15 156 632.3 156 617 156C618.029 164.863 618.029 164.863 623 170C627.528 172.651 631.872 172.678 637 172C640.111 170.678 642.451 169.097 644 166C649.28 166 654.56 166 660 166C658.789 173.266 656.324 176.164 651 181C642.016 186.924 631.434 187.081 621 186C613.284 183.873 606.943 178.712 602.719 171.949C597.491 162.035 597.293 148.21 600.062 137.438C603.128 129.128 608.992 122.727 617 119C626.291 115.328 637.293 115.677 646.492 119.535Z" fill="#151414"/>
<path d="M603 365C609.721 369.493 613.295 374.393 616 382C616 387.61 616 393.22 616 399C601.15 399 586.3 399 571 399C572.688 408.185 572.688 408.185 578.062 414.813C583.583 417.044 588.972 416.76 594.5 414.688C597.219 413.082 597.219 413.082 599 410C601.788 409.779 604.346 409.719 607.125 409.813C608.256 409.833 608.256 409.833 609.41 409.854C611.273 409.889 613.137 409.943 615 410C613.615 416.878 610.884 420.685 605.644 425.273C599.264 429.439 593.164 430.558 585.625 430.5C584.373 430.495 584.373 430.495 583.097 430.489C576.436 430.31 571.464 428.95 566 425C564.577 424.041 564.577 424.041 563.125 423.063C556.123 416.267 553.647 408.205 553.43 398.727C553.462 386.055 554.612 377.757 563.312 368C573.83 358.709 590.976 357.606 603 365Z" fill="#121211"/>
<path d="M527 96C532.28 96 537.56 96 543 96C543 106.89 543 117.78 543 129C543.66 129 544.32 129 545 129C545.165 128.299 545.33 127.598 545.5 126.875C547.835 122.399 552.109 118.975 556.934 117.348C564.842 116.017 572.237 116.428 579 121C583.749 125.349 587.613 129.918 588.241 136.537C588.234 137.88 588.234 137.88 588.227 139.249C588.227 140.27 588.227 141.291 588.227 142.342C588.216 143.432 588.206 144.522 588.195 145.645C588.192 146.769 588.19 147.894 588.187 149.053C588.176 152.64 588.15 156.226 588.125 159.812C588.115 162.247 588.106 164.681 588.098 167.115C588.076 173.077 588.041 179.038 588 185C582.39 185 576.78 185 571 185C570.985 183.764 570.971 182.529 570.956 181.256C570.898 176.65 570.82 172.045 570.738 167.44C570.704 165.451 570.676 163.462 570.654 161.472C570.62 158.605 570.568 155.738 570.512 152.871C570.505 151.989 570.499 151.106 570.492 150.197C570.347 144.029 569.617 138.716 565.152 134.082C562.465 132.731 560.562 132.633 557.562 132.688C556.172 132.693 556.172 132.693 554.754 132.699C551.735 133.029 549.647 133.497 547 135C544.258 139.752 544.65 145.007 544.586 150.332C544.567 151.324 544.547 152.316 544.527 153.337C544.468 156.496 544.421 159.654 544.375 162.812C544.337 164.958 544.298 167.103 544.258 169.248C544.162 174.499 544.078 179.749 544 185C538.39 185 532.78 185 527 185C527 155.63 527 126.26 527 96Z" fill="#121212"/>
<path d="M441 95C465.42 95 489.84 95 515 95C515 100.28 515 105.56 515 111C505.76 111 496.52 111 487 111C487 135.09 487 159.18 487 184C481.06 184 475.12 184 469 184C469 159.91 469 135.82 469 111C459.76 111 450.52 111 441 111C441 105.72 441 100.44 441 95Z" fill="#161515"/>
<path d="M724 238C730.6 238 737.2 238 744 238C744 263.08 744 288.16 744 314C737.4 314 730.8 314 724 314C724 288.92 724 263.84 724 238Z" fill="#063AD8"/>
<path d="M586 252C591.185 253.761 593.864 256.558 597 261C598.991 265.76 599.352 270.212 599.312 275.312C599.304 276.44 599.304 276.44 599.295 277.591C599.16 283.79 598.896 289.818 594.535 294.609C589.367 299.108 585.635 299.349 578.984 299.277C574.96 298.903 572.92 297.774 570 295C563.173 286.467 563.151 276.399 564 266C565.574 259.953 569.026 256.568 574 253C577.697 251.151 581.956 251.664 586 252Z" fill="#F9FAFD"/>
<path d="M706 362C711.61 362 717.22 362 723 362C723 384.11 723 406.22 723 429C717.39 429 711.78 429 706 429C706 406.89 706 384.78 706 362Z" fill="#101010"/>
<path d="M214 197C227.2 197 240.4 197 254 197C254 206.24 254 215.48 254 225C240.8 225 227.6 225 214 225C214 215.76 214 206.52 214 197Z" fill="#FBFBFC"/>
<path d="M236.691 140.195C241.258 141.787 243.591 144.931 246 149C250.553 159.368 252 167.626 252 179C240.12 179 228.24 179 216 179C216 165.97 218.226 153.806 226 143C229.581 139.667 231.986 139.438 236.691 140.195Z" fill="#F9F9F9"/>
<path d="M663 375C667.593 376.879 670.082 380.11 673 384C675.227 390.682 675.221 399.973 673.164 406.758C670.799 410.932 667.587 413.568 663.183 415.441C659.284 416.439 655.836 416.144 652 415C647.344 412.166 644.726 408.705 643.312 403.438C641.811 386.924 641.811 386.924 647 380C652.239 375.135 656.021 374.345 663 375Z" fill="#F8F8F8"/>
<path d="M653 268C659.249 267.907 659.249 267.907 665.625 267.813C666.928 267.785 668.231 267.758 669.573 267.73C677.306 267.674 681.904 268.308 687.875 273.5C690.702 277.16 690.641 280.888 690.422 285.375C689.637 290.257 687.444 292.926 683.562 295.813C679.248 297.812 675.196 298.124 670.48 298.098C669.559 298.095 668.638 298.093 667.688 298.09C666.533 298.081 665.378 298.072 664.188 298.063C658.65 298.032 658.65 298.032 653 298C653 288.1 653 278.2 653 268Z" fill="#F8FAFD"/>
<path d="M216 242C227.88 242 239.76 242 252 242C250.973 254.328 249.709 266.486 241 276C237.788 277.986 234.838 278.626 231.02 278.484C227.769 277.705 226.332 276.014 224.379 273.379C218.817 263.783 216 253.045 216 242Z" fill="#F8F8F8"/>
<path d="M272 197C281.9 197 291.8 197 302 197C303.732 200.464 303.185 204.372 303.188 208.188C303.2 209.026 303.212 209.865 303.225 210.729C303.228 211.967 303.228 211.967 303.23 213.23C303.235 213.977 303.239 214.724 303.243 215.493C303 218 303 218 301 225C291.43 225 281.86 225 272 225C272 215.76 272 206.52 272 197Z" fill="#FAFAFB"/>
<path d="M168 197C177.57 197 187.14 197 197 197C197 206.24 197 215.48 197 225C187.43 225 177.86 225 168 225C167.301 221.507 166.872 218.938 166.867 215.496C166.866 214.673 166.865 213.85 166.863 213.002C166.867 212.156 166.871 211.309 166.875 210.438C166.871 209.587 166.867 208.737 166.863 207.861C166.865 207.04 166.866 206.218 166.867 205.371C166.868 204.628 166.869 203.885 166.871 203.119C167 201 167 201 168 197Z" fill="#FBFBFB"/>
<path d="M653 228C656.671 227.938 660.342 227.876 664.125 227.813C665.844 227.772 665.844 227.772 667.598 227.73C674.523 227.673 678.943 228.425 684.375 233C686.861 237.59 686.741 241.895 686 247C684.309 250.571 683.253 252.375 679.714 254.14C676.737 255.083 674.379 255.229 671.262 255.195C669.819 255.188 669.819 255.188 668.346 255.18C667.139 255.162 665.932 255.144 664.688 255.125C660.831 255.084 656.974 255.043 653 255C653 246.09 653 237.18 653 228Z" fill="#FBFBFD"/>
<path d="M265 145C277.317 150.076 286.071 158.76 293 170C293.433 170.697 293.866 171.395 294.312 172.113C297 176.62 297 176.62 297 179C288.09 179 279.18 179 270 179C268.625 169 268.625 169 268.205 165.898C267.622 161.741 266.98 157.684 265.898 153.625C265.134 150.543 264.803 148.142 265 145Z" fill="#F8F8F8"/>
<path d="M204 146C202.261 157.05 200.112 168.016 198 179C189.75 179 181.5 179 173 179C177.529 169.014 190.764 146 204 146Z" fill="#F9F9F9"/>
<path d="M803 280C803.86 291.638 803.86 291.638 800.875 296.063C797.663 299.73 794.503 301.714 789.57 302.277C784.603 302.462 780.95 302.333 777 299C774.312 294.969 774.102 291.733 775 287C778.988 281.794 783.549 281.116 789.875 280.27C794.264 279.891 798.6 279.825 803 280Z" fill="#F7F9FC"/>
<path d="M270 242C278.58 242 287.16 242 296 242C290.342 252.373 286.332 258.36 277.5 265.312C276.681 265.962 276.681 265.962 275.845 266.625C272.378 269.264 269.199 270.855 265 272C266.484 261.963 268.214 251.987 270 242Z" fill="#F3F4F4"/>
<path d="M769.313 398.938C770.567 398.947 771.821 398.956 773.113 398.965C774.066 398.976 775.019 398.988 776 399C776.289 405.764 774.904 409.582 771 415C767.413 418.288 763.861 418.512 759.156 418.363C755.936 417.821 754.201 416.338 752 414C750.411 410.821 750.584 408.504 751 405C756.612 398.996 761.447 398.864 769.313 398.938Z" fill="#F5F5F5"/>
<path d="M174 242C182.25 242 190.5 242 199 242C200.125 254.375 200.125 254.375 200.062 259.688C200.053 260.702 200.044 261.716 200.035 262.762C200.024 263.5 200.012 264.239 200 265C195.706 264.11 192.629 261.909 189.125 259.375C188.499 258.924 187.874 258.473 187.229 258.009C181.014 253.429 176.94 249.351 174 242Z" fill="#F2F2F3"/>
<path d="M733.437 207.688C734.57 207.671 735.704 207.654 736.871 207.637C740.303 208.035 741.705 208.429 744 211C745.063 216.049 744.775 220.664 742.187 225.125C738.72 228.097 735.585 228.173 731.133 228.426C727.835 227.767 726.286 226.439 724 224C723.406 220.617 723.406 220.617 723.5 216.875C723.51 215.635 723.52 214.395 723.531 213.117C723.686 212.089 723.84 211.06 724 210C727.546 207.636 729.233 207.702 733.437 207.688Z" fill="#0B3CD6"/>
<path d="M637 130C640.184 131.425 642.31 132.932 644 136C644.33 138.97 644.66 141.94 645 145C635.76 145 626.52 145 617 145C617 138.776 617.319 137.602 621 133C625.68 128.68 630.966 129.055 637 130Z" fill="#F9F9F9"/>
<path d="M588.914 373.328C593.168 374.254 595.774 376.307 598.312 379.813C599 382 599 382 599 389C589.76 389 580.52 389 571 389C571.956 382.31 572.319 380.16 576.633 375.551C580.564 372.975 584.331 373.219 588.914 373.328Z" fill="#F8F9F8"/>
<path d="M721 337.875C723.409 340.434 723.432 341.494 723.625 344.938C723.426 348.519 723.224 349.706 721 352.625C717.152 354.388 714.155 354.947 710 354C707 352 705.387 350.601 704.523 347.027C704.263 343.366 704.711 341.361 707 338.5C711.903 336.048 715.818 336.364 721 337.875Z" fill="#151515"/>
<path d="M459 366C459.99 366.33 460.98 366.66 462 367C461.67 367.99 461.34 368.98 461 370C460.883 371.917 460.823 373.837 460.795 375.757C460.765 377.528 460.765 377.528 460.734 379.335C460.718 380.61 460.701 381.886 460.684 383.199C460.663 384.505 460.642 385.81 460.621 387.155C460.565 390.622 460.516 394.089 460.468 397.556C460.418 401.095 460.362 404.635 460.307 408.174C460.199 415.116 460.098 422.058 460 429C459.67 429 459.34 429 459 429C459 408.21 459 387.42 459 366Z" fill="#DEDFE0"/>
<path d="M509 214C509.33 214 509.66 214 510 214C510 235.45 510 256.9 510 279C509.01 278.01 508.02 277.02 507 276C507.495 275.505 507.495 275.505 508 275C508.124 273.098 508.178 271.192 508.205 269.287C508.225 268.066 508.245 266.844 508.266 265.586C508.283 264.244 508.3 262.901 508.316 261.559C508.337 260.192 508.358 258.826 508.379 257.46C508.435 253.858 508.484 250.256 508.532 246.654C508.582 242.981 508.638 239.308 508.693 235.635C508.801 228.423 508.902 221.212 509 214Z" fill="#ECF2FD"/>
<path d="M599 410C604.28 410 609.56 410 615 410C614.67 410.99 614.34 411.98 614 413C609.05 413 604.1 413 599 413C599 412.01 599 411.02 599 410Z" fill="#2C2C2C"/>
<path d="M574 236C575.958 235.946 577.916 235.907 579.875 235.875C581.511 235.84 581.511 235.84 583.18 235.805C586 236 586 236 588 238C582.979 238.779 579.023 239.13 574 238C574 237.34 574 236.68 574 236Z" fill="#2953DA"/>
<path d="M555 119C555 119.66 555 120.32 555 121C553.25 122.508 553.25 122.508 551 124.125C550.257 124.664 549.515 125.203 548.75 125.758C548.173 126.168 547.595 126.578 547 127C547 126.01 547 125.02 547 124C552.349 119 552.349 119 555 119Z" fill="#222223"/>
<path d="M89 547H78.2273V512.091H89.4773C92.8636 512.091 95.7614 512.79 98.1705 514.188C100.58 515.574 102.426 517.568 103.71 520.17C104.994 522.761 105.636 525.864 105.636 529.477C105.636 533.114 104.989 536.244 103.693 538.869C102.398 541.483 100.511 543.494 98.0341 544.903C95.5568 546.301 92.5455 547 89 547ZM82.4545 543.25H88.7273C91.6136 543.25 94.0057 542.693 95.9034 541.58C97.8011 540.466 99.2159 538.881 100.148 536.824C101.08 534.767 101.545 532.318 101.545 529.477C101.545 526.659 101.085 524.233 100.165 522.199C99.2443 520.153 97.8693 518.585 96.0398 517.494C94.2102 516.392 91.9318 515.841 89.2045 515.841H82.4545V543.25ZM123.159 547.545C120.636 547.545 118.46 546.989 116.631 545.875C114.812 544.75 113.409 543.182 112.42 541.17C111.443 539.148 110.955 536.795 110.955 534.114C110.955 531.432 111.443 529.068 112.42 527.023C113.409 524.966 114.784 523.364 116.545 522.216C118.318 521.057 120.386 520.477 122.75 520.477C124.114 520.477 125.46 520.705 126.79 521.159C128.119 521.614 129.33 522.352 130.42 523.375C131.511 524.386 132.381 525.727 133.028 527.398C133.676 529.068 134 531.125 134 533.568V535.273H113.818V531.795H129.909C129.909 530.318 129.614 529 129.023 527.841C128.443 526.682 127.614 525.767 126.534 525.097C125.466 524.426 124.205 524.091 122.75 524.091C121.148 524.091 119.761 524.489 118.591 525.284C117.432 526.068 116.54 527.091 115.915 528.352C115.29 529.614 114.977 530.966 114.977 532.409V534.727C114.977 536.705 115.318 538.381 116 539.756C116.693 541.119 117.653 542.159 118.881 542.875C120.108 543.58 121.534 543.932 123.159 543.932C124.216 543.932 125.17 543.784 126.023 543.489C126.886 543.182 127.631 542.727 128.256 542.125C128.881 541.511 129.364 540.75 129.705 539.841L133.591 540.932C133.182 542.25 132.494 543.409 131.528 544.409C130.563 545.398 129.369 546.17 127.949 546.727C126.528 547.273 124.932 547.545 123.159 547.545ZM144.142 512.091V547H140.119V512.091H144.142ZM151.51 547V520.818H155.533V547H151.51ZM153.555 516.455C152.771 516.455 152.095 516.188 151.527 515.653C150.97 515.119 150.692 514.477 150.692 513.727C150.692 512.977 150.97 512.335 151.527 511.801C152.095 511.267 152.771 511 153.555 511C154.339 511 155.01 511.267 155.567 511.801C156.135 512.335 156.419 512.977 156.419 513.727C156.419 514.477 156.135 515.119 155.567 515.653C155.01 516.188 154.339 516.455 153.555 516.455ZM184.31 520.818L174.628 547H170.537L160.855 520.818H165.219L172.446 541.682H172.719L179.946 520.818H184.31ZM199.659 547.545C197.136 547.545 194.96 546.989 193.131 545.875C191.312 544.75 189.909 543.182 188.92 541.17C187.943 539.148 187.455 536.795 187.455 534.114C187.455 531.432 187.943 529.068 188.92 527.023C189.909 524.966 191.284 523.364 193.045 522.216C194.818 521.057 196.886 520.477 199.25 520.477C200.614 520.477 201.96 520.705 203.29 521.159C204.619 521.614 205.83 522.352 206.92 523.375C208.011 524.386 208.881 525.727 209.528 527.398C210.176 529.068 210.5 531.125 210.5 533.568V535.273H190.318V531.795H206.409C206.409 530.318 206.114 529 205.523 527.841C204.943 526.682 204.114 525.767 203.034 525.097C201.966 524.426 200.705 524.091 199.25 524.091C197.648 524.091 196.261 524.489 195.091 525.284C193.932 526.068 193.04 527.091 192.415 528.352C191.79 529.614 191.477 530.966 191.477 532.409V534.727C191.477 536.705 191.818 538.381 192.5 539.756C193.193 541.119 194.153 542.159 195.381 542.875C196.608 543.58 198.034 543.932 199.659 543.932C200.716 543.932 201.67 543.784 202.523 543.489C203.386 543.182 204.131 542.727 204.756 542.125C205.381 541.511 205.864 540.75 206.205 539.841L210.091 540.932C209.682 542.25 208.994 543.409 208.028 544.409C207.063 545.398 205.869 546.17 204.449 546.727C203.028 547.273 201.432 547.545 199.659 547.545ZM216.619 547V520.818H220.506V524.773H220.778C221.256 523.477 222.119 522.426 223.369 521.619C224.619 520.812 226.028 520.409 227.597 520.409C227.892 520.409 228.261 520.415 228.705 520.426C229.148 520.437 229.483 520.455 229.71 520.477V524.568C229.574 524.534 229.261 524.483 228.773 524.415C228.295 524.335 227.79 524.295 227.256 524.295C225.983 524.295 224.847 524.562 223.847 525.097C222.858 525.619 222.074 526.347 221.494 527.278C220.926 528.199 220.642 529.25 220.642 530.432V547H216.619ZM234.479 547V520.818H238.501V547H234.479ZM236.524 516.455C235.74 516.455 235.064 516.188 234.496 515.653C233.939 515.119 233.661 514.477 233.661 513.727C233.661 512.977 233.939 512.335 234.496 511.801C235.064 511.267 235.74 511 236.524 511C237.308 511 237.979 511.267 238.536 511.801C239.104 512.335 239.388 512.977 239.388 513.727C239.388 514.477 239.104 515.119 238.536 515.653C237.979 516.188 237.308 516.455 236.524 516.455ZM249.892 531.25V547H245.869V520.818H249.756V524.909H250.097C250.71 523.58 251.642 522.511 252.892 521.705C254.142 520.886 255.756 520.477 257.733 520.477C259.506 520.477 261.057 520.841 262.386 521.568C263.716 522.284 264.75 523.375 265.489 524.841C266.227 526.295 266.597 528.136 266.597 530.364V547H262.574V530.636C262.574 528.58 262.04 526.977 260.972 525.83C259.903 524.67 258.438 524.091 256.574 524.091C255.29 524.091 254.142 524.369 253.131 524.926C252.131 525.483 251.341 526.295 250.761 527.364C250.182 528.432 249.892 529.727 249.892 531.25ZM284.516 557.364C282.572 557.364 280.902 557.114 279.504 556.614C278.107 556.125 276.942 555.477 276.01 554.67C275.089 553.875 274.357 553.023 273.811 552.114L277.016 549.864C277.379 550.341 277.839 550.886 278.396 551.5C278.953 552.125 279.714 552.665 280.68 553.119C281.658 553.585 282.936 553.818 284.516 553.818C286.629 553.818 288.374 553.307 289.749 552.284C291.124 551.261 291.811 549.659 291.811 547.477V542.159H291.47C291.175 542.636 290.754 543.227 290.209 543.932C289.675 544.625 288.902 545.244 287.891 545.79C286.891 546.324 285.538 546.591 283.834 546.591C281.72 546.591 279.822 546.091 278.141 545.091C276.47 544.091 275.146 542.636 274.169 540.727C273.203 538.818 272.72 536.5 272.72 533.773C272.72 531.091 273.192 528.756 274.135 526.767C275.078 524.767 276.391 523.222 278.072 522.131C279.754 521.028 281.697 520.477 283.902 520.477C285.607 520.477 286.959 520.761 287.959 521.33C288.97 521.886 289.743 522.523 290.277 523.239C290.822 523.943 291.243 524.523 291.538 524.977H291.947V520.818H295.834V547.75C295.834 550 295.322 551.83 294.3 553.239C293.288 554.659 291.925 555.699 290.209 556.358C288.504 557.028 286.607 557.364 284.516 557.364ZM284.379 542.977C285.993 542.977 287.357 542.608 288.47 541.869C289.584 541.131 290.43 540.068 291.01 538.682C291.589 537.295 291.879 535.636 291.879 533.705C291.879 531.818 291.595 530.153 291.027 528.71C290.459 527.267 289.618 526.136 288.504 525.318C287.391 524.5 286.016 524.091 284.379 524.091C282.675 524.091 281.254 524.523 280.118 525.386C278.993 526.25 278.146 527.409 277.578 528.864C277.021 530.318 276.743 531.932 276.743 533.705C276.743 535.523 277.027 537.131 277.595 538.528C278.175 539.915 279.027 541.006 280.152 541.801C281.288 542.585 282.697 542.977 284.379 542.977ZM340.152 512.091H344.379V535.205C344.379 537.591 343.817 539.722 342.692 541.597C341.578 543.46 340.004 544.932 337.97 546.011C335.936 547.08 333.55 547.614 330.811 547.614C328.072 547.614 325.686 547.08 323.652 546.011C321.618 544.932 320.038 543.46 318.913 541.597C317.8 539.722 317.243 537.591 317.243 535.205V512.091H321.47V534.864C321.47 536.568 321.845 538.085 322.595 539.415C323.345 540.733 324.413 541.773 325.8 542.534C327.197 543.284 328.868 543.659 330.811 543.659C332.754 543.659 334.425 543.284 335.822 542.534C337.22 541.773 338.288 540.733 339.027 539.415C339.777 538.085 340.152 536.568 340.152 534.864V512.091ZM356.298 531.25V547H352.276V520.818H356.162V524.909H356.503C357.116 523.58 358.048 522.511 359.298 521.705C360.548 520.886 362.162 520.477 364.139 520.477C365.912 520.477 367.463 520.841 368.793 521.568C370.122 522.284 371.156 523.375 371.895 524.841C372.634 526.295 373.003 528.136 373.003 530.364V547H368.98V530.636C368.98 528.58 368.446 526.977 367.378 525.83C366.31 524.67 364.844 524.091 362.98 524.091C361.696 524.091 360.548 524.369 359.537 524.926C358.537 525.483 357.747 526.295 357.168 527.364C356.588 528.432 356.298 529.727 356.298 531.25ZM380.899 547V512.091H384.922V524.977H385.263C385.558 524.523 385.967 523.943 386.49 523.239C387.024 522.523 387.786 521.886 388.774 521.33C389.774 520.761 391.126 520.477 392.831 520.477C395.036 520.477 396.979 521.028 398.661 522.131C400.342 523.233 401.655 524.795 402.598 526.818C403.541 528.841 404.013 531.227 404.013 533.977C404.013 536.75 403.541 539.153 402.598 541.188C401.655 543.21 400.348 544.778 398.678 545.892C397.007 546.994 395.081 547.545 392.899 547.545C391.217 547.545 389.871 547.267 388.859 546.71C387.848 546.142 387.07 545.5 386.524 544.784C385.979 544.057 385.558 543.455 385.263 542.977H384.786V547H380.899ZM384.854 533.909C384.854 535.886 385.143 537.631 385.723 539.142C386.303 540.642 387.149 541.818 388.263 542.67C389.376 543.511 390.74 543.932 392.354 543.932C394.036 543.932 395.439 543.489 396.564 542.602C397.7 541.705 398.553 540.5 399.121 538.989C399.7 537.466 399.99 535.773 399.99 533.909C399.99 532.068 399.706 530.409 399.138 528.932C398.581 527.443 397.734 526.267 396.598 525.403C395.473 524.528 394.058 524.091 392.354 524.091C390.717 524.091 389.342 524.506 388.229 525.335C387.115 526.153 386.274 527.301 385.706 528.778C385.138 530.244 384.854 531.955 384.854 533.909ZM410.166 547V520.818H414.189V547H410.166ZM412.212 516.455C411.428 516.455 410.751 516.188 410.183 515.653C409.626 515.119 409.348 514.477 409.348 513.727C409.348 512.977 409.626 512.335 410.183 511.801C410.751 511.267 411.428 511 412.212 511C412.996 511 413.666 511.267 414.223 511.801C414.791 512.335 415.075 512.977 415.075 513.727C415.075 514.477 414.791 515.119 414.223 515.653C413.666 516.188 412.996 516.455 412.212 516.455ZM429.261 547.614C427.602 547.614 426.097 547.301 424.744 546.676C423.392 546.04 422.318 545.125 421.523 543.932C420.727 542.727 420.33 541.273 420.33 539.568C420.33 538.068 420.625 536.852 421.216 535.92C421.807 534.977 422.597 534.239 423.585 533.705C424.574 533.17 425.665 532.773 426.858 532.511C428.063 532.239 429.273 532.023 430.489 531.864C432.08 531.659 433.369 531.506 434.358 531.403C435.358 531.29 436.085 531.102 436.54 530.841C437.006 530.58 437.239 530.125 437.239 529.477V529.341C437.239 527.659 436.778 526.352 435.858 525.42C434.949 524.489 433.568 524.023 431.716 524.023C429.795 524.023 428.29 524.443 427.199 525.284C426.108 526.125 425.341 527.023 424.898 527.977L421.08 526.614C421.761 525.023 422.67 523.784 423.807 522.898C424.955 522 426.205 521.375 427.557 521.023C428.92 520.659 430.261 520.477 431.58 520.477C432.42 520.477 433.386 520.58 434.477 520.784C435.58 520.977 436.642 521.381 437.665 521.994C438.699 522.608 439.557 523.534 440.239 524.773C440.92 526.011 441.261 527.67 441.261 529.75V547H437.239V543.455H437.034C436.761 544.023 436.307 544.631 435.67 545.278C435.034 545.926 434.188 546.477 433.131 546.932C432.074 547.386 430.784 547.614 429.261 547.614ZM429.875 544C431.466 544 432.807 543.688 433.898 543.062C435 542.438 435.83 541.631 436.386 540.642C436.955 539.653 437.239 538.614 437.239 537.523V533.841C437.068 534.045 436.693 534.233 436.114 534.403C435.545 534.562 434.886 534.705 434.136 534.83C433.398 534.943 432.676 535.045 431.972 535.136C431.278 535.216 430.716 535.284 430.284 535.341C429.239 535.477 428.261 535.699 427.352 536.006C426.455 536.301 425.727 536.75 425.17 537.352C424.625 537.943 424.352 538.75 424.352 539.773C424.352 541.17 424.869 542.227 425.903 542.943C426.949 543.648 428.273 544 429.875 544ZM467.149 526.682L463.536 527.705C463.308 527.102 462.973 526.517 462.53 525.949C462.098 525.369 461.507 524.892 460.757 524.517C460.007 524.142 459.047 523.955 457.876 523.955C456.274 523.955 454.939 524.324 453.871 525.062C452.814 525.79 452.286 526.716 452.286 527.841C452.286 528.841 452.649 529.631 453.376 530.21C454.104 530.79 455.24 531.273 456.786 531.659L460.672 532.614C463.013 533.182 464.757 534.051 465.905 535.222C467.053 536.381 467.626 537.875 467.626 539.705C467.626 541.205 467.195 542.545 466.331 543.727C465.479 544.909 464.286 545.841 462.751 546.523C461.217 547.205 459.433 547.545 457.399 547.545C454.729 547.545 452.518 546.966 450.768 545.807C449.018 544.648 447.911 542.955 447.445 540.727L451.263 539.773C451.626 541.182 452.314 542.239 453.325 542.943C454.348 543.648 455.683 544 457.331 544C459.206 544 460.695 543.602 461.797 542.807C462.911 542 463.467 541.034 463.467 539.909C463.467 539 463.149 538.239 462.513 537.625C461.876 537 460.899 536.534 459.581 536.227L455.217 535.205C452.82 534.636 451.058 533.756 449.933 532.562C448.82 531.358 448.263 529.852 448.263 528.045C448.263 526.568 448.678 525.261 449.507 524.125C450.348 522.989 451.49 522.097 452.933 521.449C454.388 520.801 456.036 520.477 457.876 520.477C460.467 520.477 462.501 521.045 463.979 522.182C465.467 523.318 466.524 524.818 467.149 526.682ZM484.659 547.545C482.136 547.545 479.96 546.989 478.131 545.875C476.312 544.75 474.909 543.182 473.92 541.17C472.943 539.148 472.455 536.795 472.455 534.114C472.455 531.432 472.943 529.068 473.92 527.023C474.909 524.966 476.284 523.364 478.045 522.216C479.818 521.057 481.886 520.477 484.25 520.477C485.614 520.477 486.96 520.705 488.29 521.159C489.619 521.614 490.83 522.352 491.92 523.375C493.011 524.386 493.881 525.727 494.528 527.398C495.176 529.068 495.5 531.125 495.5 533.568V535.273H475.318V531.795H491.409C491.409 530.318 491.114 529 490.523 527.841C489.943 526.682 489.114 525.767 488.034 525.097C486.966 524.426 485.705 524.091 484.25 524.091C482.648 524.091 481.261 524.489 480.091 525.284C478.932 526.068 478.04 527.091 477.415 528.352C476.79 529.614 476.477 530.966 476.477 532.409V534.727C476.477 536.705 476.818 538.381 477.5 539.756C478.193 541.119 479.153 542.159 480.381 542.875C481.608 543.58 483.034 543.932 484.659 543.932C485.716 543.932 486.67 543.784 487.523 543.489C488.386 543.182 489.131 542.727 489.756 542.125C490.381 541.511 490.864 540.75 491.205 539.841L495.091 540.932C494.682 542.25 493.994 543.409 493.028 544.409C492.063 545.398 490.869 546.17 489.449 546.727C488.028 547.273 486.432 547.545 484.659 547.545ZM511.506 547.545C509.324 547.545 507.398 546.994 505.727 545.892C504.057 544.778 502.75 543.21 501.807 541.188C500.864 539.153 500.392 536.75 500.392 533.977C500.392 531.227 500.864 528.841 501.807 526.818C502.75 524.795 504.063 523.233 505.744 522.131C507.426 521.028 509.369 520.477 511.574 520.477C513.278 520.477 514.625 520.761 515.614 521.33C516.614 521.886 517.375 522.523 517.898 523.239C518.432 523.943 518.847 524.523 519.142 524.977H519.483V512.091H523.506V547H519.619V542.977H519.142C518.847 543.455 518.426 544.057 517.881 544.784C517.335 545.5 516.557 546.142 515.545 546.71C514.534 547.267 513.188 547.545 511.506 547.545ZM512.051 543.932C513.665 543.932 515.028 543.511 516.142 542.67C517.256 541.818 518.102 540.642 518.682 539.142C519.261 537.631 519.551 535.886 519.551 533.909C519.551 531.955 519.267 530.244 518.699 528.778C518.131 527.301 517.29 526.153 516.176 525.335C515.063 524.506 513.688 524.091 512.051 524.091C510.347 524.091 508.926 524.528 507.79 525.403C506.665 526.267 505.818 527.443 505.25 528.932C504.693 530.409 504.415 532.068 504.415 533.909C504.415 535.773 504.699 537.466 505.267 538.989C505.847 540.5 506.699 541.705 507.824 542.602C508.96 543.489 510.369 543.932 512.051 543.932ZM573.159 512.091V547H569.068L550.045 519.591H549.705V547H545.477V512.091H549.568L568.659 539.568H569V512.091H573.159ZM592.05 547.545C589.527 547.545 587.351 546.989 585.521 545.875C583.703 544.75 582.3 543.182 581.311 541.17C580.334 539.148 579.845 536.795 579.845 534.114C579.845 531.432 580.334 529.068 581.311 527.023C582.3 524.966 583.675 523.364 585.436 522.216C587.209 521.057 589.277 520.477 591.641 520.477C593.004 520.477 594.351 520.705 595.68 521.159C597.01 521.614 598.22 522.352 599.311 523.375C600.402 524.386 601.271 525.727 601.919 527.398C602.567 529.068 602.891 531.125 602.891 533.568V535.273H582.709V531.795H598.8C598.8 530.318 598.504 529 597.913 527.841C597.334 526.682 596.504 525.767 595.425 525.097C594.357 524.426 593.095 524.091 591.641 524.091C590.038 524.091 588.652 524.489 587.482 525.284C586.322 526.068 585.43 527.091 584.805 528.352C584.18 529.614 583.868 530.966 583.868 532.409V534.727C583.868 536.705 584.209 538.381 584.891 539.756C585.584 541.119 586.544 542.159 587.771 542.875C588.999 543.58 590.425 543.932 592.05 543.932C593.107 543.932 594.061 543.784 594.913 543.489C595.777 543.182 596.521 542.727 597.146 542.125C597.771 541.511 598.254 540.75 598.595 539.841L602.482 540.932C602.072 542.25 601.385 543.409 600.419 544.409C599.453 545.398 598.26 546.17 596.839 546.727C595.419 547.273 593.822 547.545 592.05 547.545ZM614.942 547L606.964 520.818H611.192L616.851 540.864H617.124L622.714 520.818H627.01L632.533 540.795H632.805L638.464 520.818H642.692L634.714 547H630.76L625.033 526.886H624.624L618.896 547H614.942ZM666.555 526.682L662.942 527.705C662.714 527.102 662.379 526.517 661.936 525.949C661.504 525.369 660.913 524.892 660.163 524.517C659.413 524.142 658.453 523.955 657.283 523.955C655.68 523.955 654.345 524.324 653.277 525.062C652.22 525.79 651.692 526.716 651.692 527.841C651.692 528.841 652.055 529.631 652.783 530.21C653.51 530.79 654.646 531.273 656.192 531.659L660.078 532.614C662.419 533.182 664.163 534.051 665.311 535.222C666.459 536.381 667.033 537.875 667.033 539.705C667.033 541.205 666.601 542.545 665.737 543.727C664.885 544.909 663.692 545.841 662.158 546.523C660.624 547.205 658.839 547.545 656.805 547.545C654.135 547.545 651.925 546.966 650.175 545.807C648.425 544.648 647.317 542.955 646.851 540.727L650.669 539.773C651.033 541.182 651.72 542.239 652.732 542.943C653.754 543.648 655.089 544 656.737 544C658.612 544 660.101 543.602 661.203 542.807C662.317 542 662.874 541.034 662.874 539.909C662.874 539 662.555 538.239 661.919 537.625C661.283 537 660.305 536.534 658.987 536.227L654.624 535.205C652.226 534.636 650.464 533.756 649.339 532.562C648.226 531.358 647.669 529.852 647.669 528.045C647.669 526.568 648.084 525.261 648.913 524.125C649.754 522.989 650.896 522.097 652.339 521.449C653.794 520.801 655.442 520.477 657.283 520.477C659.874 520.477 661.908 521.045 663.385 522.182C664.874 523.318 665.93 524.818 666.555 526.682ZM710.043 512.091H714.27V535.205C714.27 537.591 713.707 539.722 712.582 541.597C711.469 543.46 709.895 544.932 707.861 546.011C705.827 547.08 703.44 547.614 700.702 547.614C697.963 547.614 695.577 547.08 693.543 546.011C691.509 544.932 689.929 543.46 688.804 541.597C687.69 539.722 687.134 537.591 687.134 535.205V512.091H691.361V534.864C691.361 536.568 691.736 538.085 692.486 539.415C693.236 540.733 694.304 541.773 695.69 542.534C697.088 543.284 698.759 543.659 700.702 543.659C702.645 543.659 704.315 543.284 705.713 542.534C707.111 541.773 708.179 540.733 708.918 539.415C709.668 538.085 710.043 536.568 710.043 534.864V512.091ZM740.712 526.682L737.098 527.705C736.871 527.102 736.536 526.517 736.092 525.949C735.661 525.369 735.07 524.892 734.32 524.517C733.57 524.142 732.609 523.955 731.439 523.955C729.837 523.955 728.501 524.324 727.433 525.062C726.376 525.79 725.848 526.716 725.848 527.841C725.848 528.841 726.212 529.631 726.939 530.21C727.666 530.79 728.803 531.273 730.348 531.659L734.234 532.614C736.575 533.182 738.32 534.051 739.467 535.222C740.615 536.381 741.189 537.875 741.189 539.705C741.189 541.205 740.757 542.545 739.893 543.727C739.041 544.909 737.848 545.841 736.314 546.523C734.78 547.205 732.996 547.545 730.962 547.545C728.291 547.545 726.081 546.966 724.331 545.807C722.581 544.648 721.473 542.955 721.007 540.727L724.825 539.773C725.189 541.182 725.876 542.239 726.888 542.943C727.911 543.648 729.246 544 730.893 544C732.768 544 734.257 543.602 735.359 542.807C736.473 542 737.03 541.034 737.03 539.909C737.03 539 736.712 538.239 736.075 537.625C735.439 537 734.462 536.534 733.143 536.227L728.78 535.205C726.382 534.636 724.621 533.756 723.496 532.562C722.382 531.358 721.825 529.852 721.825 528.045C721.825 526.568 722.24 525.261 723.07 524.125C723.911 522.989 725.053 522.097 726.496 521.449C727.95 520.801 729.598 520.477 731.439 520.477C734.03 520.477 736.064 521.045 737.541 522.182C739.03 523.318 740.087 524.818 740.712 526.682ZM747.244 547V520.818H751.267V547H747.244ZM749.29 516.455C748.506 516.455 747.83 516.188 747.261 515.653C746.705 515.119 746.426 514.477 746.426 513.727C746.426 512.977 746.705 512.335 747.261 511.801C747.83 511.267 748.506 511 749.29 511C750.074 511 750.744 511.267 751.301 511.801C751.869 512.335 752.153 512.977 752.153 513.727C752.153 514.477 751.869 515.119 751.301 515.653C750.744 516.188 750.074 516.455 749.29 516.455ZM762.658 531.25V547H758.635V520.818H762.521V524.909H762.862C763.476 523.58 764.408 522.511 765.658 521.705C766.908 520.886 768.521 520.477 770.499 520.477C772.271 520.477 773.822 520.841 775.152 521.568C776.482 522.284 777.516 523.375 778.254 524.841C778.993 526.295 779.362 528.136 779.362 530.364V547H775.339V530.636C775.339 528.58 774.805 526.977 773.737 525.83C772.669 524.67 771.203 524.091 769.339 524.091C768.055 524.091 766.908 524.369 765.896 524.926C764.896 525.483 764.107 526.295 763.527 527.364C762.947 528.432 762.658 529.727 762.658 531.25ZM797.281 557.364C795.338 557.364 793.668 557.114 792.27 556.614C790.872 556.125 789.707 555.477 788.776 554.67C787.855 553.875 787.122 553.023 786.577 552.114L789.781 549.864C790.145 550.341 790.605 550.886 791.162 551.5C791.719 552.125 792.48 552.665 793.446 553.119C794.423 553.585 795.702 553.818 797.281 553.818C799.395 553.818 801.139 553.307 802.514 552.284C803.889 551.261 804.577 549.659 804.577 547.477V542.159H804.236C803.94 542.636 803.52 543.227 802.974 543.932C802.44 544.625 801.668 545.244 800.656 545.79C799.656 546.324 798.304 546.591 796.599 546.591C794.486 546.591 792.588 546.091 790.906 545.091C789.236 544.091 787.912 542.636 786.935 540.727C785.969 538.818 785.486 536.5 785.486 533.773C785.486 531.091 785.957 528.756 786.901 526.767C787.844 524.767 789.156 523.222 790.838 522.131C792.52 521.028 794.463 520.477 796.668 520.477C798.372 520.477 799.724 520.761 800.724 521.33C801.736 521.886 802.509 522.523 803.043 523.239C803.588 523.943 804.009 524.523 804.304 524.977H804.713V520.818H808.599V547.75C808.599 550 808.088 551.83 807.065 553.239C806.054 554.659 804.69 555.699 802.974 556.358C801.27 557.028 799.372 557.364 797.281 557.364ZM797.145 542.977C798.759 542.977 800.122 542.608 801.236 541.869C802.349 541.131 803.196 540.068 803.776 538.682C804.355 537.295 804.645 535.636 804.645 533.705C804.645 531.818 804.361 530.153 803.793 528.71C803.224 527.267 802.384 526.136 801.27 525.318C800.156 524.5 798.781 524.091 797.145 524.091C795.44 524.091 794.02 524.523 792.884 525.386C791.759 526.25 790.912 527.409 790.344 528.864C789.787 530.318 789.509 531.932 789.509 533.705C789.509 535.523 789.793 537.131 790.361 538.528C790.94 539.915 791.793 541.006 792.918 541.801C794.054 542.585 795.463 542.977 797.145 542.977ZM831.44 547H827.009L839.827 512.091H844.19L857.009 547H852.577L842.145 517.614H841.872L831.44 547ZM833.077 533.364H850.94V537.114H833.077V533.364ZM866.673 512.091V547H862.446V512.091H866.673Z" fill="black"/>
</g>
<defs>
<clipPath id="clip0_2_3">
<rect width="958" height="595" rx="12" fill="white"/>
</clipPath>
</defs>
</svg>
